<svg xmlns="http://www.w3.org/2000/svg" viewBox="0 0 100 100"><path fill="#f1bc19" d="M77 12a1 1 0 1 0 0 2 1 1 0 1 0 0-2Z"/><path fill="#e4e4f9" d="M50 13a37 37 0 1 0 0 74 37 37 0 1 0 0-74Z"/><path fill="#f1bc19" d="M83 11a4 4 0 1 0 0 8 4 4 0 1 0 0-8Z"/><path fill="#8889b9" d="M87 22a2 2 0 1 0 0 4 2 2 0 1 0 0-4Z"/><path fill="#fbcd59" d="M81 74a2 2 0 1 0 0 4 2 2 0 1 0 0-4zM15 59a4 4 0 1 0 0 8 4 4 0 1 0 0-8z"/><path fill="#8889b9" d="M25 85a2 2 0 1 0 0 4 2 2 0 1 0 0-4Z"/><path fill="#fff" d="M18.5 49a2.5 2.5 0 1 0 0 5 2.5 2.5 0 1 0 0-5zm61-17a1.5 1.5 0 1 0 0 3 1.5 1.5 0 1 0 0-3z"/><path fill="#fefdef" d="M35.511 74.3a4.816 4.816 0 0 1-4.811-4.811V29.511a4.817 4.817 0 0 1 4.811-4.811h29.978a4.817 4.817 0 0 1 4.811 4.811V69.49a4.817 4.817 0 0 1-4.811 4.811H35.511z"/><path fill="#472b29" d="M65.489 25.4a4.115 4.115 0 0 1 4.111 4.111v39.978a4.115 4.115 0 0 1-4.111 4.111H35.511a4.115 4.115 0 0 1-4.111-4.111V29.511a4.115 4.115 0 0 1 4.111-4.111h29.978m0-1.4H35.511A5.51 5.51 0 0 0 30 29.511v39.978A5.51 5.51 0 0 0 35.511 75h29.978A5.51 5.51 0 0 0 71 69.489V29.511A5.51 5.51 0 0 0 65.489 24z"/><path fill="#472b29" d="M66.5 40a.5.5 0 0 1-.5-.5v-6.315C66 31.98 64.963 31 63.688 31a.5.5 0 0 1 0-1C65.514 30 67 31.429 67 33.185V39.5a.5.5 0 0 1-.5.5zm-2.812 31H37.313C35.486 71 34 69.571 34 67.815v-34.63C34 31.429 35.486 30 37.313 30a.5.5 0 0 1 0 1C36.038 31 35 31.98 35 33.185v34.631C35 69.02 36.038 70 37.313 70h26.375C64.963 70 66 69.02 66 67.815V55.5a.5.5 0 0 1 1 0v12.315C67 69.571 65.514 71 63.688 71zM66.5 54a.5.5 0 0 1-.5-.5v-7a.5.5 0 0 1 1 0v7a.5.5 0 0 1-.5.5zm0-9.25a.5.5 0 0 1-.5-.5v-2.583a.5.5 0 0 1 1 0v2.583a.5.5 0 0 1-.5.5zm-28-17.25a.5.5 0 0 1-.5-.5v-4.333a.5.5 0 0 1 1 0V27a.5.5 0 0 1-.5.5zm5 0a.5.5 0 0 1-.5-.5v-4.333a.5.5 0 0 1 1 0V27a.5.5 0 0 1-.5.5zm5 0a.5.5 0 0 1-.5-.5v-4.333a.5.5 0 0 1 1 0V27a.5.5 0 0 1-.5.5zm5 0a.5.5 0 0 1-.5-.5v-4.333a.5.5 0 0 1 1 0V27a.5.5 0 0 1-.5.5zm5 0a.5.5 0 0 1-.5-.5v-4.333a.5.5 0 0 1 1 0V27a.5.5 0 0 1-.5.5zm5 0a.5.5 0 0 1-.5-.5v-4.333a.5.5 0 0 1 1 0V27a.5.5 0 0 1-.5.5z"/><path fill="#a3a3cd" d="M62.5 64.75h-24a.25.25 0 0 1 0-.5h24a.25.25 0 0 1 0 .5zm0-3h-24a.25.25 0 0 1 0-.5h24a.25.25 0 0 1 0 .5zM62.5 58.75h-24a.25.25 0 0 1 0-.5h24a.25.25 0 0 1 0 .5zM62.5 55.75h-24a.25.25 0 0 1 0-.5h24a.25.25 0 0 1 0 .5zM62.5 52.75h-24a.25.25 0 0 1 0-.5h24a.25.25 0 0 1 0 .5zM62.5 49.75h-24a.25.25 0 0 1 0-.5h24a.25.25 0 0 1 0 .5zM62.5 46.75h-24a.25.25 0 0 1 0-.5h24a.25.25 0 0 1 0 .5zM62.5 43.75h-24a.25.25 0 0 1 0-.5h24a.25.25 0 0 1 0 .5zM62.5 40.75h-24a.25.25 0 0 1 0-.5h24a.25.25 0 0 1 0 .5zM62.5 37.75h-24a.25.25 0 0 1 0-.5h24a.25.25 0 0 1 0 .5z"/><path fill="#f15b6c" d="M41.5 67.75a.25.25 0 0 1-.25-.25v-33a.25.25 0 0 1 .5 0v33a.25.25 0 0 1-.25.25z"/></svg>
