<svg xmlns="http://www.w3.org/2000/svg" fill="#f3ece2" viewBox="0 0 50 50"><path d="M13 3c-2.758 0-5 2.242-5 5a5.022 5.022 0 0 0 4 4.906v22.188c.328-.047.66-.094 1-.094.45 0 .887.043 1.313.125 1.187-5.035 5.707-5.805 10.843-6.656 5.809-.961 12.371-2.059 12.813-10.563C40.262 17.45 42 15.422 42 13c0-2.758-2.242-5-5-5s-5 2.242-5 5a5.027 5.027 0 0 0 3.969 4.906c-.41 6.801-5.39 7.645-11.125 8.594-4.016.664-8.375 1.406-10.844 4.594V12.906A5.022 5.022 0 0 0 18 8c0-2.758-2.242-5-5-5Zm0 34c-2.758 0-5 2.242-5 5s2.242 5 5 5 5-2.242 5-5-2.242-5-5-5Z"/></svg>
